# xmcd
#
# Track frame offsets:
#	150
#	14295
#	32775
#	50287
#	72375
#
# Disc length: 1167 seconds
#
# Revision: 1
# Processed by: cddbd v1.5PL3 Copyright (c) Steve Scherf et al.
# Submitted via: CDex 1.50Beta5
#
DISCID=3b048d05
DTITLE=CHISATO - SURF SIDE ATTACK!
DYEAR=1999
DGENRE=Rock
TTITLE0=Freak Out!
TTITLE1=電撃ミサイル2000
TTITLE2=SACRIFICE
TTITLE3=NO REASON
TTITLE4=Brilliant Life
EXTD=
EXTT0=
EXTT1=
EXTT2=
EXTT3=
EXTT4=
PLAYORDER=
